HIERARCHY
ROOT hip
{
	OFFSET 0.000000 0.000000 0.000000 
	CHANNELS 6 Xposition Yposition Zposition Xrotation Zrotation Yrotation
	JOINT abdomen
	{
		OFFSET 0.000000 3.402643 0.000000 
		CHANNELS 3 Xrotation Zrotation Yrotation
		JOINT chest
		{
			OFFSET 0.000000 8.438565 -0.680529 
			CHANNELS 3 Xrotation Zrotation Yrotation
			JOINT neck
			{
				OFFSET 0.000000 10.207942 -0.272212 
				CHANNELS 3 Xrotation Zrotation Yrotation
				JOINT head
				{
					OFFSET 0.000000 3.130431 0.000000 
					CHANNELS 3 Xrotation Zrotation Yrotation
					End Site
					{
						OFFSET 0.000000 3.130435 0.000000 
					}
				}
			}
			JOINT lCollar
			{
				OFFSET 3.470700 6.669187 -0.816635 
				CHANNELS 3 Yrotation Zrotation Xrotation
				JOINT lShldr
				{
					OFFSET 3.198488 0.000000 0.000000 
					CHANNELS 3 Zrotation Yrotation Xrotation
					JOINT lForeArm
					{
						OFFSET 10.139888 0.000000 0.000000 
						CHANNELS 3 Yrotation Zrotation Xrotation
						JOINT lHand
						{
							OFFSET 8.370511 0.000000 0.000000 
							CHANNELS 3 Zrotation Yrotation Xrotation
							End Site
							{
								OFFSET 4.083176 0.000000 0.000000 
							}
						}
					}
				}
			}
			JOINT rCollar
			{
				OFFSET -3.470700 6.669187 -0.816635 
				CHANNELS 3 Yrotation Zrotation Xrotation
				JOINT rShldr
				{
					OFFSET -3.198488 0.000000 0.000000 
					CHANNELS 3 Zrotation Yrotation Xrotation
					JOINT rForeArm
					{
						OFFSET -10.139888 0.000000 0.000000 
						CHANNELS 3 Yrotation Zrotation Xrotation
						JOINT rHand
						{
							OFFSET -8.370511 0.000000 0.000000 
							CHANNELS 3 Zrotation Yrotation Xrotation
							End Site
							{
								OFFSET -4.083176 0.000000 0.000000 
							}
						}
					}
				}
			}
		}
	}
	JOINT lThigh
	{
		OFFSET 5.308129 -1.633274 1.361059 
		CHANNELS 3 Xrotation Zrotation Yrotation
		JOINT lShin
		{
			OFFSET -2.041588 -20.007561 0.000000 
			CHANNELS 3 Xrotation Zrotation Yrotation
			JOINT lFoot
			{
				OFFSET 0.000000 -19.190928 -1.224953 
				CHANNELS 3 Xrotation Yrotation Zrotation
				End Site
				{
					OFFSET 0.000000 -2.449906 4.627600 
				}
			}
		}
	}
	JOINT rThigh
	{
		OFFSET -5.308129 -1.633274 1.361059 
		CHANNELS 3 Xrotation Zrotation Yrotation
		JOINT rShin
		{
			OFFSET 2.041588 -20.007561 0.000000 
			CHANNELS 3 Xrotation Zrotation Yrotation
			JOINT rFoot
			{
				OFFSET 0.000000 -19.190928 -1.224953 
				CHANNELS 3 Xrotation Yrotation Zrotation
				End Site
				{
					OFFSET 0.000000 -2.449906 4.627600 
				}
			}
		}
	}
}
MOTION
Frames: 11
Frame Time: 0.016667
11.342575 49.147423 85.567932 -19.702065 2.553061 18.710882 28.107796 -1.777139 0.869328 -13.716044 4.246302 1.645521 8.905655 1.023749 3.242717 32.229515 -2.161072 4.573315 -2.628416 -8.524943 -0.009648 -69.275208 -13.723896 9.133888 -44.872200 4.480728 61.513123 -14.176163 11.046321 -2.779510 11.660053 -0.617208 -0.009564 57.246193 5.667224 5.811514 46.025047 -3.792320 47.388939 -1.874980 -0.166246 -0.004357 0.733590 13.964964 -9.121338 36.278015 -0.841861 -2.883868 0.138416 -3.774328 -12.213074 8.511515 -16.039143 -6.090137 52.668324 -0.090417 3.559924 12.239398 -3.232717 12.836757 
11.257829 49.115852 85.715050 -19.871294 2.505379 18.172623 27.797649 -1.552539 0.908399 -13.954687 4.275731 1.577354 9.224071 1.091881 3.350303 32.606167 -2.530670 4.662706 -2.520953 -8.290586 -0.009654 -68.856514 -12.772779 10.228968 -44.856678 4.453836 60.878036 -14.050329 11.517613 -2.869028 11.503804 -0.617182 -0.009569 57.552273 6.262631 5.523763 46.270885 -3.716231 46.235020 -3.867537 -0.769728 0.052030 1.260220 14.120629 -8.947228 36.297714 -0.851505 -2.878089 -0.261933 -3.449425 -12.244603 8.853538 -15.952089 -5.883470 52.561378 -0.080640 3.550008 11.670870 -3.191177 12.795139 
11.173037 49.084358 85.862091 -20.036167 2.466308 17.644129 27.487869 -1.337711 0.937700 -14.192663 4.305135 1.518197 9.541956 1.150258 3.448138 32.971897 -2.900169 4.751860 -2.403723 -8.046466 -0.009661 -68.411736 -11.844464 11.326150 -44.833668 4.427701 60.248840 -13.925048 11.989388 -2.956324 11.337786 -0.626920 -0.009574 57.855534 6.866595 5.251175 46.513508 -3.652530 45.078308 -5.860824 -1.370755 0.130844 1.787407 14.268785 -8.761910 36.316345 -0.841904 -2.905203 -0.648946 -3.066545 -12.251110 9.185871 -15.884325 -5.678405 52.454044 -0.080704 3.545111 11.085605 -3.173998 12.757166 
11.072360 49.075607 85.982101 -20.105211 2.362041 17.066036 27.208086 -1.083827 0.976573 -14.322038 4.412655 1.450044 9.576238 1.189089 3.575069 33.265114 -3.318316 4.822189 -2.179084 -7.870722 -0.009667 -68.040306 -10.808332 12.328866 -44.696423 4.419977 60.068100 -13.598756 12.624317 -3.035069 11.171772 -0.617127 -0.009580 58.202057 7.315049 5.017462 46.812412 -3.563866 43.774261 -7.522736 -1.743970 0.220322 2.197637 14.407207 -8.661409 36.248482 -0.836053 -2.890339 -0.856386 -2.570303 -12.262551 9.389779 -15.735130 -5.421701 52.229660 -0.068879 3.540476 10.522314 -3.241505 12.736193 
10.971662 49.066883 86.102051 -20.184986 2.247591 16.478241 26.918880 -0.829948 1.015660 -14.441133 4.520157 1.391640 9.600718 1.227916 3.692440 33.558144 -3.726641 4.892774 -1.964209 -7.694979 -0.009672 -67.638321 -9.788209 13.323586 -44.565010 4.415776 59.901421 -13.262525 13.261079 -3.104337 11.005758 -0.607333 -0.009585 58.548218 7.763442 4.804273 47.119694 -3.484145 42.465832 -9.175494 -2.114442 0.321480 2.607434 14.565346 -8.528356 36.170105 -0.851562 -2.891210 -1.059664 -2.032534 -12.235198 9.607727 -15.583944 -5.173995 52.005997 -0.051314 3.519150 9.975690 -3.291101 12.709517 
10.863288 49.064758 86.198021 -20.169090 2.150954 15.890515 26.708046 -0.576072 1.064498 -14.491066 4.637404 1.342985 9.390333 1.256983 3.809604 33.627476 -4.008459 4.953181 -1.641914 -7.519252 -0.009678 -67.482613 -8.761015 14.100501 -44.175713 4.423967 60.174450 -12.900183 13.795471 -3.133505 10.859273 -0.607309 -0.009590 58.944233 7.964008 4.625328 47.372856 -3.401652 41.241867 -10.337601 -1.982590 0.341531 2.939771 14.625093 -8.466284 36.023796 -0.845848 -2.882227 -1.079673 -1.426159 -12.221944 9.714000 -15.494781 -4.898934 51.752346 -0.031796 3.516643 9.521117 -3.357570 12.696126 
10.754863 49.062630 86.293877 -20.151142 2.053488 15.303203 26.497698 -0.322206 1.103498 -14.531436 4.754653 1.293530 9.179615 1.276280 3.936527 33.687305 -4.280494 5.013716 -1.319618 -7.343526 -0.009683 -67.311317 -7.738547 14.872631 -43.794735 4.440392 60.447235 -12.537861 14.340325 -3.160280 10.703023 -0.607282 -0.009595 59.331272 8.159852 4.454333 47.633785 -3.325464 40.014099 -11.499578 -1.850847 0.356379 3.231615 14.690027 -8.427399 35.916473 -0.880545 -2.868024 -1.106692 -0.816147 -12.197173 9.818321 -15.393433 -4.622152 51.498669 -0.021951 3.509617 9.061157 -3.388051 12.682802 
10.628620 49.060497 86.348076 -19.964441 1.955052 14.735456 26.383850 -0.146456 1.123043 -14.620609 4.920737 1.235148 8.639266 1.334561 4.044145 33.667126 -4.474790 5.054139 -0.889898 -7.158052 -0.009688 -67.377098 -6.694359 15.323159 -43.118740 4.457680 60.966255 -12.273816 14.670156 -3.161205 10.556530 -0.665852 -0.009600 59.838879 8.089427 4.453817 47.752048 -3.240295 38.742161 -12.210925 -1.531294 0.311261 3.339072 14.729172 -8.328853 35.712006 -0.890135 -2.841318 -0.945795 -0.310788 -12.162591 9.654371 -15.327586 -4.281795 51.313656 -0.012234 3.495953 8.672771 -3.314784 12.638054 
10.502348 49.058392 86.402168 -19.773342 1.865353 14.168073 26.269918 0.019527 1.132816 -14.719888 5.086823 1.176783 8.089371 1.392821 4.151773 33.637772 -4.659333 5.094616 -0.460179 -6.972578 -0.009693 -67.434677 -5.649621 15.771176 -42.442635 4.486282 61.482380 -12.016922 15.001790 -3.152461 10.410035 -0.724421 -0.009604 60.336250 8.015594 4.442560 47.864891 -3.158144 37.477711 -12.912835 -1.201542 0.265378 3.436991 14.770205 -8.220735 35.506454 -0.899914 -2.843735 -0.781291 0.258925 -12.156999 9.491007 -15.272076 -3.953147 51.118145 -0.012167 3.496751 8.255997 -3.256033 12.599104 
10.366214 49.064251 86.416306 -19.450432 1.774264 13.698321 26.252632 0.136693 1.103536 -14.800875 5.252929 1.108715 7.169050 1.470613 4.220366 33.567677 -4.678788 5.094615 -0.196493 -6.894498 -0.009695 -67.671799 -4.441295 15.394650 -41.560513 4.503558 61.931690 -11.978480 15.214641 -3.185377 10.263541 -0.782990 -0.009608 60.861103 7.711528 4.561574 47.804482 -3.085050 36.455009 -13.059442 -1.219886 0.272861 3.388563 14.818789 -8.020596 35.203846 -0.899957 -2.828683 -0.547029 0.658857 -12.163246 9.164739 -15.206849 -3.664133 50.912895 -0.000177 3.502520 7.987760 -3.150592 12.572449 
10.230074 49.070148 86.430328 -19.116232 1.682677 13.228609 26.245222 0.263625 1.084018 -14.892951 5.419052 1.030030 6.248914 1.548389 4.288707 33.496704 -4.707968 5.094610 0.067192 -6.816418 -0.009697 -67.915199 -3.237857 15.018289 -40.686657 4.525771 62.391674 -11.942207 15.415977 -3.225235 10.107279 -0.851323 -0.009613 61.385136 7.397418 4.678869 47.743675 -3.017373 35.441254 -13.205797 -1.230922 0.268703 3.301004 14.868425 -7.859779 34.920246 -0.923950 -2.821633 -0.317874 1.075374 -12.144186 8.835519 -15.162774 -3.366888 50.708378 0.017278 3.491391 7.692715 -3.072985 12.538665 
